{"title":"Cruel Intentions 1999 720p BRRiP XviD AC3 multisubs nekanilla","uid":8208065,"size":3153255239,"categoryP":"video","categoryS":"hd___movies","magnet":"?xt=urn:btih:5e334d2f35d8640b218514b123436bd074fee12f&amp;dn=Cruel+Intentions+1999+720p+BRRiP+XviD+AC3+multisubs+nekanilla&amp;tr=udp%3A%2F%2Ftracker.openbittorrent.com%3A80&amp;tr=udp%3A%2F%2Fopen.demonii.com%3A1337&amp;tr=udp%3A%2F%2Ftracker.coppersurfer.tk%3A6969&amp;tr=udp%3A%2F%2Fexodus.desync.com%3A6969","seeders":1,"leechers":1,"uploader":"nekanilla","files":11,"time":1362169022,"description":"-----------------------------------------------------------------------------------\n             Cruel Intentions 1999 720p BRRiP XviD AC3 multisubs nekanilla\n___________________________________________________________________________________\n\n---------------------------------------INFO----------------------------------------\n\nMovie name: Cruel Intentions\nCountry and year of production: USA / 1999\nSpeech language / subtitle: English / Greek, English, Spanish, Swedish, Dutch, Finnish, Romanian, Slovenian, Turkish SRT\nGenre: Drama | Romance | Thriller \nMovie Length: 97 minutes\nWriter: Roger Kumble, Choderlos de Laclos\nDirected by: Roger Kumble \n___________________________________________________________________________________\n\n---------------------------------------PLOT----------------------------------------\n\nA pair of unscrupulous siblings star in a sexy tale of seduction, revenge and conquest. After cleverly seducing and ruining the reputation of an unsuspecting classmate, the sparks fly when Kathryn poses the ultimate challenge to her insatiable stepbrother Sebastian: deflower the Headmaster's beautiful, virgin daughter Annette. If he fails, Kathryn gets his 1956 jaguar convertible, but if he succeeds, Sebastain gets to possess and bed Kathryn. The stakes are high, but for Sebastian, the payoff is feverishly irresistible and before the summer's over, no one will escape their relentless game of cat and mouse . . . until one of them is bitten by the most unlikely sensation of all . . . love.\n\nWritten by Robert Lynch\n\n___________________________________________________________________________________\n\n---------------------------------------CAST----------------------------------------\n\nSarah Michelle Gellar as Kathryn Merteuil\nRyan Phillippe as Sebastian Valmont\nReese Witherspoon as Annette Hargrove\nSelma Blair as Cecile Caldwell\nLouise Fletcher as Helen Rosemond\nSwoosie Kurtz as Dr. Regina Greenbaum\nSean Patrick Thomas as Ronald Clifford\nChristine Baranski as Bunny Caldwell\nJoshua Jackson as Blaine Tuttle\nEric Mabius as Greg McConnell\nTara Reid as Marci Greenbaum\nCharlie O'Connell as Court Reynolds\nHerta Ware as Mrs. Sugarman\n___________________________________________________________________________________\n\n------------------------------------MEDIA INFO-------------------------------------\n     \n                                 Includes sample\nGeneral\nComplete name                  : Cruel Intentions 1999 720p BRRiP XviD AC3.avi\nFormat                         : AVI\nFormat/Info                    : Audio Video Interleave\nFormat profile                 : OpenDML\nFormat settings                : rec\nFile size                      : 2.90 GiB\nDuration                       : 1h 37mn\nOverall bit rate               : 4 258 Kbps\nWriting application            : AVI-Mux GUI 1.17.8.3, Feb 16 201019:42:50\n\nVideo\nID                             : 0\nFormat                         : MPEG-4 Visual\nFormat profile                 : Advanced Simple@L5\nFormat settings, BVOP          : 2\nFormat settings, QPel          : No\nFormat settings, GMC           : No warppoints\nFormat settings, Matrix        : Default (H.263)\nCodec ID                       : XVID\nCodec ID/Hint                  : XviD\nDuration                       : 1h 37mn\nBit rate                       : 3 804 Kbps\nWidth                          : 1 280 pixels\nHeight                         : 688 pixels\nDisplay aspect ratio           : 1.85:1\nFrame rate                     : 23.976 fps\nColor space                    : YUV\nChroma subsampling             : 4:2:0\nBit depth                      : 8 bits\nScan type                      : Progressive\nCompression mode               : Lossy\nBits/(Pixel*Frame)             : 0.180\nStream size                    : 2.59 GiB (89%)\nWriting library                : XviD 1.2.1 (UTC 2008-12-04)\n\nAudio\nID                             : 1\nFormat                         : AC-3\nFormat/Info                    : Audio Coding 3\nMode extension                 : CM (complete main)\nCodec ID                       : 2000\nDuration                       : 1h 37mn\nBit rate mode                  : Constant\nBit rate                       : 448 Kbps\nChannel(s)                     : 6 channels\nChannel positions              : Front: L C R, Side: L R, LFE\nSampling rate                  : 48.0 KHz\nBit depth                      : 16 bits\nCompression mode               : Lossy\nStream size                    : 312 MiB (11%)\nAlignment                      : Aligned on interleaves\nInterleave, duration           : 64 ms (1.53 video frames)\nInterleave, preload duration   : 192 ms\nTitle                          : Cruel.Intentions.audio\n___________________________________________________________________________________\n\n___________________________________________________________________________________\n\n-----------------------------------SCREENSHOTS-------------------------------------\n                         &lt;a href=&quot; http://i.imgur.com/DY6VGkD.jpg&quot; rel=&quot;nofollow&quot; target=&quot;_NEW&quot;&gt; http://i.imgur.com/DY6VGkD.jpg&lt;/a&gt;\n                         &lt;a href=&quot; http://i.imgur.com/3CqOYd1.png&quot; rel=&quot;nofollow&quot; target=&quot;_NEW&quot;&gt; http://i.imgur.com/3CqOYd1.png&lt;/a&gt;\n                         &lt;a href=&quot; http://i.imgur.com/ZeprVVJ.png&quot; rel=&quot;nofollow&quot; target=&quot;_NEW&quot;&gt; http://i.imgur.com/ZeprVVJ.png&lt;/a&gt;\n                         &lt;a href=&quot; http://i.imgur.com/pga210s.png&quot; rel=&quot;nofollow&quot; target=&quot;_NEW&quot;&gt; http://i.imgur.com/pga210s.png&lt;/a&gt;\n___________________________________________________________________________________\n\n                                Source : Cruel.Intentions.1999.BluRay.1080p.\nLPCM.h264.Remux-HiFi\n\n                                Rip   : By   nekanilla\t","torrent":{"xt":"urn:btih:5e334d2f35d8640b218514b123436bd074fee12f","amp;dn":"Cruel+Intentions+1999+720p+BRRiP+XviD+AC3+multisubs+nekanilla","amp;tr":["udp%3A%2F%2Ftracker.openbittorrent.com%3A80","udp%3A%2F%2Fopen.demonii.com%3A1337","udp%3A%2F%2Ftracker.coppersurfer.tk%3A6969","udp%3A%2F%2Fexodus.desync.com%3A6969"],"infoHash":"5e334d2f35d8640b218514b123436bd074fee12f","infoHashBuffer":{"type":"Buffer","data":[94,51,77,47,53,216,100,11,33,133,20,177,35,67,107,208,116,254,225,47]},"announce":[],"urlList":[]}}